<svg xmlns="http://www.w3.org/2000/svg" xmlns:xlink="http://www.w3.org/1999/xlink" width="1140.14" height="633.75" viewBox="0 0 1140.14 633.75">
  <defs>
    <clipPath id="clip-path">
      <polygon points="212.92 499.12 98.85 499.12 126.52 318.12 185.25 318.12 212.92 499.12" style="fill: none"/>
    </clipPath>
  </defs>
  <title>Mesa de trabajo 23</title>
  <g id="Project_design" data-name="Project design">
    <g>
      <g>
        <path d="M367.57,247.32H227.92L224,294.44a103,103,0,0,1,60-18.8q43.46,0,75.93,29.79T392.47,385q0,52.49-37.84,85.45T258,503.42q-51.27,0-88.74-27t-46-75.32l85.93-10.5Q217.67,427,255.75,427q19.29,0,30.16-11.72t10.86-28.56q0-19.05-12.45-29.79a43.76,43.76,0,0,0-29.54-10.74q-25.4,0-39.06,21L139.3,356.45,154,165.05H376.36Z" style="fill: #fff"/>
        <path d="M550.19,503.42q-60.32,0-95.46-47.48T419.57,331.06q0-79.33,36-125.24t96.32-45.9q63.23,0,96.92,49T682.51,334q0,77.64-36.25,123.54T550.19,503.42Zm1-70.8q21,0,28.08-26.73t7.08-73.12q0-63.72-9.4-83.25T551.41,230q-19.53,0-27,25.75T517,326.67q0,61.27,7.45,83.61T551.16,432.62Z" style="fill: #fff"/>
        <path d="M843.4,503.42q-60.3,0-95.46-47.48T712.79,331.06q0-79.33,36-125.24t96.31-45.9q63.23,0,96.92,49T975.73,334q0,77.64-36.26,123.54T843.4,503.42Zm1-70.8q21,0,28.07-26.73t7.08-73.12q0-63.72-9.4-83.25T844.62,230q-19.53,0-27,25.75t-7.44,70.93q0,61.27,7.44,83.61T844.38,432.62Z" style="fill: #fff"/>
      </g>
      <g style="opacity: 0.30000000000000004">
        <path d="M1138.47,217.55a67.1,67.1,0,0,0-10.68-33.46C1115.4,164.87,1097,148,1074,142.73l-23.92-3.22a89.61,89.61,0,0,0-45.43,12.29Q968.41,170,932.59,189.1c3.27-7.77,6.39-15.62,9.13-23.57a60.89,60.89,0,0,0,2.44-8.66c1.61-8.65,3.24-18.11,3.49-27,0-.6,0-1.2,0-1.8-.16-7.15-2-18-3.31-25.08-1-5.23-2.8-8.08-5.28-14-5.68-13.45-7.14-18.88-19.55-30.78-.35-.35-.59-.78-1-1.12-2.18-2-15.89-12.83-18.57-14.41l-1.74-1-21.5-9.07-1.05-.32c-3.92-1-20.85-3.33-24.76-3.3-.85,0-1.67.06-2.52.09-19.27.54-23.08,2.52-38,8.8-7.45,3.15-14.79,6.31-22.06,9.82C773.63,54.89,759.19,62.64,745,70.85,687.84,104,635.44,144.53,582.35,183.72q-7.9,5.85-15.88,11.65c3.81-13.5,5.19-27.61,6.71-41.54a89.5,89.5,0,0,0-12.29-45.42,67.89,67.89,0,0,0-23.18-25.25,67.67,67.67,0,0,0-30.6-16.11,90.56,90.56,0,0,0-47.85,0q-7.61,2.91-15.15,6a67.59,67.59,0,0,0-6.35-17.61,67.45,67.45,0,0,0-18.61-29C402,10.68,379.48-1,355.51.07L331.59,3.28a89.91,89.91,0,0,0-39.72,23.15L67.94,212.7c-9.65,8-19.87,15.68-28.86,24.45a76.1,76.1,0,0,0-5.3,5.77c-6.07,7.3-12.74,15-17.57,23.22C5.05,285.2,1.43,302.51,0,324.28a89.61,89.61,0,0,0,12.29,45.43A68,68,0,0,0,35.47,395a67.86,67.86,0,0,0,30.6,16.11,90.8,90.8,0,0,0,47.86,0c51.74-13.08,101.56-33.07,150.18-55-.47,1.23-.92,2.48-1.38,3.76-6.6,18.68-6.43,41.07-1,60a98.57,98.57,0,0,0,70,67.79c21.86,5.52,42.49,2.45,64-2.65,13-3.06,25.78-6.79,38.39-11.08a648.5,648.5,0,0,0,65.54-26.48c-13.26,16.46-26,33.36-37.79,50.85q-4.53,10.74-9.07,21.5a68.24,68.24,0,0,0-1.61,35.88,44.86,44.86,0,0,0,6.15,22.72,67.45,67.45,0,0,0,18.61,29l18.21,14.07,21.5,9.08a68.18,68.18,0,0,0,35.89,1.6A66.9,66.9,0,0,0,585,621.39q94.07-69.66,192.64-133T978.77,368.68q57.78-31.83,116.73-61.46A67.89,67.89,0,0,0,1120.75,284a67.67,67.67,0,0,0,16.11-30.6A68.18,68.18,0,0,0,1138.47,217.55Z" style="fill: #fff"/>
      </g>
      <g>
        <g>
          <g>
            <rect x="571.04" y="206.12" width="257" height="257" rx="42.21" transform="translate(-31.72 592.66) rotate(-45)" style="fill: #f1b123"/>
            <rect x="571.04" y="206.12" width="257" height="257" rx="42.21" transform="translate(-31.72 592.66) rotate(-45)" style="fill: none;stroke: #5d514c;stroke-miterlimit: 10;stroke-width: 3px"/>
          </g>
          <path d="M739.49,298.71c.37,7.27-3.17,14.55-8.21,22.2,4.1-24.82-4.11-52.62-37.13-65.49,2.8,10.45-3.92,23.32-10.45,37.32a92.42,92.42,0,0,0-13.8-12.88c2.61,34.7-73.51,69.41-11.76,128.74a62.65,62.65,0,0,0,11.38,5.22l-.56-.56h0c-13.24-14.37-20.52-44,4.67-63.62-.38,4.85,2,9.51,5.41,14.37-2.61-16.05,2.61-34.15,24.07-42.54-1.87,6.71,2.61,15.11,6.71,24.25a48.63,48.63,0,0,1,9-8.39c-1.31,18.47,33,37.5,20.71,65.67a57,57,0,0,0,7.09-6.34h0C766.91,374.64,778.11,328.93,739.49,298.71Z" style="fill: #b7202e;stroke: #5d514c;stroke-miterlimit: 10;stroke-width: 3px"/>
          <g>
            <circle cx="699.54" cy="202.99" r="12.91" style="fill: #999"/>
            <circle cx="699.54" cy="202.99" r="6.46" style="fill: #c6c6c6;stroke: #494949;stroke-miterlimit: 10;stroke-width: 3px"/>
            <circle cx="704.21" cy="198.38" r="4.3" style="fill: #fff;opacity: 0.5"/>
            <circle cx="699.54" cy="202.99" r="12.91" style="fill: none;stroke: #494949;stroke-miterlimit: 10;stroke-width: 3px"/>
          </g>
          <g>
            <circle cx="699.54" cy="470.99" r="12.91" style="fill: #999"/>
            <circle cx="699.54" cy="470.99" r="6.46" style="fill: #c6c6c6;stroke: #494949;stroke-miterlimit: 10;stroke-width: 3px"/>
            <circle cx="704.21" cy="466.38" r="4.3" style="fill: #fff;opacity: 0.5"/>
            <circle cx="699.54" cy="470.99" r="12.91" style="fill: none;stroke: #494949;stroke-miterlimit: 10;stroke-width: 3px"/>
          </g>
        </g>
        <g>
          <g style="clip-path: url(#clip-path)">
            <polygon points="212.92 499.12 98.85 499.12 126.52 318.12 185.25 318.12 212.92 499.12" style="fill: #f5821f"/>
            <rect x="92.43" y="350.12" width="136.67" height="34" style="fill: #fff"/>
            <rect x="92.43" y="424.12" width="136.67" height="34" style="fill: #fff"/>
          </g>
          <polygon points="212.92 499.12 98.85 499.12 126.52 318.12 185.25 318.12 212.92 499.12" style="fill: none;stroke: #5d514c;stroke-miterlimit: 10;stroke-width: 3px"/>
          <polygon points="210.75 494.11 208.28 480.12 103.33 479.63 101.28 493.14 210.75 494.11" style="fill: #ce6c24"/>
          <rect x="82.04" y="491.12" width="147.68" height="24" style="fill: #f5821f"/>
          <rect x="82.04" y="491.62" width="147.68" height="24" style="fill: none;stroke: #5d514c;stroke-miterlimit: 10;stroke-width: 3px"/>
        </g>
      </g>
    </g>
  </g>
</svg>
