<svg xmlns="http://www.w3.org/2000/svg" xmlns:xlink="http://www.w3.org/1999/xlink" width="1140.14" height="633.75" viewBox="0 0 1140.14 633.75">
  <defs>
    <clipPath id="clip-path">
      <rect x="333.54" y="279.62" width="419" height="120" style="fill: none"/>
    </clipPath>
  </defs>
  <title>Mesa de trabajo 21</title>
  <g id="Project_design" data-name="Project design">
    <g>
      <path d="M1138.47,217.55a67,67,0,0,0-10.68-33.46C1115.4,164.87,1097,148,1074,142.73l-23.92-3.22a89.61,89.61,0,0,0-45.43,12.29Q968.41,170,932.59,189.1c3.27-7.77,6.39-15.62,9.13-23.57a60.89,60.89,0,0,0,2.44-8.66c1.61-8.65,3.24-18.11,3.49-27,0-.6,0-1.2,0-1.8-.16-7.15-2-18-3.31-25.08-1-5.23-2.8-8.08-5.28-14-5.68-13.45-7.14-18.88-19.54-30.78-.36-.35-.6-.78-1-1.12-2.18-2-15.89-12.83-18.57-14.41l-1.74-1-21.5-9.07-1.05-.32c-3.92-1-20.85-3.33-24.76-3.3-.85,0-1.67.06-2.52.09-19.27.54-23.08,2.52-38,8.8-7.45,3.15-14.79,6.31-22.06,9.82C773.63,54.89,759.19,62.64,745,70.85,687.84,104,635.44,144.53,582.35,183.72q-7.9,5.85-15.88,11.65c3.81-13.5,5.19-27.61,6.71-41.54a89.5,89.5,0,0,0-12.29-45.42,67.89,67.89,0,0,0-23.18-25.25,67.67,67.67,0,0,0-30.6-16.11,90.56,90.56,0,0,0-47.85,0q-7.61,2.91-15.15,6a67.59,67.59,0,0,0-6.35-17.61,67.45,67.45,0,0,0-18.61-29C402,10.68,379.48-1,355.51.07L331.59,3.28a89.91,89.91,0,0,0-39.72,23.15L67.94,212.7c-9.65,8-19.87,15.68-28.86,24.45a76.1,76.1,0,0,0-5.3,5.77c-6.07,7.3-12.74,15-17.57,23.22C5.05,285.2,1.43,302.52,0,324.28a89.61,89.61,0,0,0,12.29,45.43A68,68,0,0,0,35.47,395a67.86,67.86,0,0,0,30.6,16.11,90.8,90.8,0,0,0,47.86,0c51.74-13.08,101.56-33.07,150.18-55-.47,1.23-.92,2.48-1.38,3.76-6.6,18.68-6.43,41.07-1,60a98.57,98.57,0,0,0,70,67.79c21.86,5.52,42.49,2.45,64-2.65,13-3.06,25.78-6.79,38.39-11.08a648.5,648.5,0,0,0,65.54-26.48c-13.26,16.46-26,33.36-37.79,50.85q-4.53,10.74-9.07,21.5a68.24,68.24,0,0,0-1.61,35.88,44.86,44.86,0,0,0,6.15,22.72,67.45,67.45,0,0,0,18.61,29l18.21,14.07,21.5,9.08a68.18,68.18,0,0,0,35.89,1.6A66.9,66.9,0,0,0,585,621.39q94.07-69.66,192.64-133T978.78,368.68q57.77-31.83,116.72-61.46A67.89,67.89,0,0,0,1120.75,284a67.67,67.67,0,0,0,16.11-30.6A68.18,68.18,0,0,0,1138.47,217.55Z" style="fill: #fff;opacity: 0.30000000000000004"/>
      <g>
        <path d="M391.82,425.06H345V498.3h-91.8V425.06H116.92V352.55L242.41,159.92H345V352.55h46.87ZM253.15,352.55V253l-63.1,99.54Z" style="fill: #fff"/>
        <path d="M543.19,503.42q-60.32,0-95.46-47.48T412.57,331.06q0-79.33,36-125.24t96.32-45.9q63.23,0,96.92,49T675.51,334q0,77.64-36.25,123.54T543.19,503.42Zm1-70.8q21,0,28.08-26.73t7.08-73.12q0-63.72-9.4-83.25T544.41,230q-19.53,0-27,25.75T510,326.67q0,61.27,7.45,83.61T544.16,432.62Z" style="fill: #fff"/>
        <path d="M696.75,396.49l86.92-10.74q8.54,45.66,48.82,45.65,18.32,0,29.79-9.52t11.47-25.63a30.37,30.37,0,0,0-6.22-18.92q-6.22-8.19-13.31-11.48t-24.41-3.29H789.28V293h34.18q27.35,0,35.16-9.77T866.43,263a28.35,28.35,0,0,0-9.77-22q-9.76-8.79-25.63-8.79-34.18,0-41.75,38.09l-80.56-12.7q11-46.87,46.5-72.26t84.11-25.39q54.69,0,87.89,25.63t33.2,68.36q0,25.64-14,44.68t-35.77,25.64q60.06,18.3,60.06,78.36,0,47.87-36.5,74.35t-94.61,26.48Q722.87,503.42,696.75,396.49Z" style="fill: #fff"/>
      </g>
      <g>
        <rect x="372.54" y="259.62" width="23" height="236" style="fill: #c6c6c6;stroke: #494949;stroke-miterlimit: 10;stroke-width: 3px"/>
        <g>
          <rect x="690.54" y="259.62" width="23" height="236" style="fill: #c6c6c6;stroke: #494949;stroke-miterlimit: 10;stroke-width: 3px"/>
          <rect x="374.04" y="400.92" width="20" height="7.85" style="fill: #999"/>
          <rect x="692.04" y="400.92" width="20" height="8.26" style="fill: #999"/>
          <g>
            <g>
              <g>
                <g style="clip-path: url(#clip-path)">
                  <rect x="302.04" y="244.12" width="478" height="190" style="fill: #fff"/>
                  <g>
                    <polygon points="243.54 459.12 199.54 459.12 399.54 220.12 443.54 220.12 243.54 459.12" style="fill: #b7202e"/>
                    <polygon points="332.54 459.12 288.54 459.12 488.54 220.12 532.54 220.12 332.54 459.12" style="fill: #b7202e"/>
                    <polygon points="420.54 459.12 376.54 459.12 576.54 220.12 620.54 220.12 420.54 459.12" style="fill: #b7202e"/>
                    <polygon points="509.54 459.12 465.54 459.12 665.54 220.12 709.54 220.12 509.54 459.12" style="fill: #b7202e"/>
                    <polygon points="598.54 459.12 554.54 459.12 754.54 220.12 798.54 220.12 598.54 459.12" style="fill: #b7202e"/>
                    <polygon points="687.54 459.12 643.54 459.12 843.54 220.12 887.54 220.12 687.54 459.12" style="fill: #b7202e"/>
                  </g>
                </g>
                <rect x="333.54" y="279.62" width="419" height="120" style="fill: none;stroke: #494949;stroke-miterlimit: 10;stroke-width: 3px"/>
              </g>
              <g>
                <path d="M368.29,258.12h31a7.5,7.5,0,0,1,7.5,7.5v13.5a0,0,0,0,1,0,0h-46a0,0,0,0,1,0,0v-13.5A7.5,7.5,0,0,1,368.29,258.12Z" style="fill: #999;stroke: #494949;stroke-miterlimit: 10;stroke-width: 3px"/>
                <path d="M686.79,258.62h31a7.5,7.5,0,0,1,7.5,7.5v13.5a0,0,0,0,1,0,0h-46a0,0,0,0,1,0,0v-13.5A7.5,7.5,0,0,1,686.79,258.62Z" style="fill: #999;stroke: #494949;stroke-miterlimit: 10;stroke-width: 3px"/>
              </g>
            </g>
            <g>
              <g>
                <circle cx="384.04" cy="233.12" r="24" style="fill: #b7202e"/>
                <circle cx="384.04" cy="233.12" r="12" style="fill: #f5821f"/>
                <circle cx="391.04" cy="223.12" r="8" style="fill: #fff;opacity: 0.5"/>
                <circle cx="384.04" cy="233.12" r="24" style="fill: none;stroke: #494949;stroke-miterlimit: 10;stroke-width: 3px"/>
              </g>
              <g>
                <circle cx="702.04" cy="233.12" r="24" style="fill: #b7202e"/>
                <circle cx="702.04" cy="233.12" r="12" style="fill: #f5821f"/>
                <circle cx="709.04" cy="223.12" r="8" style="fill: #fff;opacity: 0.5"/>
                <circle cx="702.04" cy="233.12" r="24" style="fill: none;stroke: #494949;stroke-miterlimit: 10;stroke-width: 3px"/>
              </g>
            </g>
          </g>
        </g>
        <rect x="360.04" y="487.12" width="47" height="10" style="fill: #c6c6c6;stroke: #494949;stroke-miterlimit: 10;stroke-width: 3px"/>
        <rect x="679.54" y="487.62" width="47" height="10" style="fill: #c6c6c6;stroke: #494949;stroke-miterlimit: 10;stroke-width: 3px"/>
      </g>
    </g>
  </g>
</svg>
