<?xml version="1.0" encoding="utf-8"?>
<svg version="1.1" id="Capa_1" xmlns="http://www.w3.org/2000/svg" xmlns:xlink="http://www.w3.org/1999/xlink" x="0px" y="0px"
	 viewBox="0 0 500 162" style="enable-background:new 0 0 500 162;" xml:space="preserve">
<style type="text/css">
	.st0{fill:#FF4F00;}
	.st1{fill:#FF5500;}
	.st2{display:none;}
	.st3{display:inline;fill-opacity:0;stroke:#FF5500;stroke-width:0.4286;stroke-miterlimit:1.24;}
	.st4{display:none;opacity:0.9544;}
	.st5{display:inline;fill-opacity:0;stroke:#FF5500;stroke-width:1.5446;stroke-miterlimit:1.24;}
</style>
<g>
	<g transform="matrix(1,0,0,1,400,25)">
		<g transform="matrix(1,0,0,1,300,150)">
			<g transform="matrix(1,0,0,1,0,0)">
				<path class="st0" d="M-258.1-104.4v52.5v16.8v19h9.8v-4.4c5.1,4.1,11.5,6.5,18.4,6.5c16.3,0,29.5-13.2,29.5-29.5
					c0-16.3-13.2-29.5-29.5-29.5c-7,0-13.4,2.4-18.4,6.5v-37.9L-258.1-104.4L-258.1-104.4L-258.1-104.4z M-249.5-43.5
					c0-2.4,0.4-4.7,1.2-6.8c2.8-7.5,10-12.9,18.4-12.9c10.9,0,19.7,8.8,19.7,19.7s-8.8,19.7-19.7,19.7c-8.5,0-15.7-5.4-18.4-12.9
					C-249-38.9-249.5-41.1-249.5-43.5z"/>
			</g>
		</g>
		<g transform="matrix(1,0,0,1,300,150)">
			<g transform="matrix(1,0,0,1,0,0)">
				<path class="st0" d="M-282.7-71.8v5.3c-5.1-4.1-11.5-6.5-18.4-6.5c-16.3,0-29.5,13.2-29.5,29.5S-317.4-14-301.1-14
					c7,0,13.4-2.4,18.4-6.5v4.4h9.8v-19v-16.8v-19.9H-282.7L-282.7-71.8z M-282.7-36.7c-2.8,7.5-10,12.9-18.4,12.9
					c-10.9,0-19.7-8.8-19.7-19.7s8.8-19.7,19.7-19.7c8.5,0,15.7,5.4,18.4,12.9c0.8,2.1,1.2,4.4,1.2,6.8
					C-281.5-41.1-281.9-38.9-282.7-36.7z"/>
			</g>
		</g>
		<g transform="matrix(1,0,0,1,300,150)">
			<g transform="matrix(1,0,0,1,0,0)">
				<path class="st0" d="M-350.3-104.4h9.8v88.3h-9.8V-104.4z"/>
			</g>
		</g>
		<g transform="matrix(1,0,0,1,300,150)">
			<g transform="matrix(1,0,0,1,0,0)">
				<path class="st0" d="M-389.7-73c-16.3,0-29.5,13.2-29.5,29.5S-406-14-389.7-14c16.3,0,29.5-13.2,29.5-29.5S-373.4-73-389.7-73z
					 M-389.7-23.8c-10.9,0-19.7-8.8-19.7-19.7s8.8-19.7,19.7-19.7c10.9,0,19.7,8.8,19.7,19.7S-378.8-23.8-389.7-23.8z"/>
			</g>
		</g>
		<g transform="matrix(1,0,0,1,300,150)">
			<g transform="matrix(1,0,0,1,0,0)">
				<path class="st0" d="M-424.1-73.3c-7.6,0-14.5,2.9-19.7,7.5V-72c0,0,0,0,0,0h-9.8c0,0,0,0,0,0v56h9.8v-27.7
					c0-10.9,8.8-19.7,19.7-19.7C-424.1-63.4-424.1-73.2-424.1-73.3L-424.1-73.3z"/>
			</g>
		</g>
		<g transform="matrix(1,0,0,1,300,150)">
			<g transform="matrix(1,0,0,1,0,0)">
				<path class="st0" d="M-520.1-43.5c0-16.6,12.7-29.5,28.7-29.5s27.7,11.6,27.9,31.9h-46.4c0.9,10.2,8.8,17.8,19.2,17.8
					c7.2,0,13-3.2,16.7-6.9l6.3,6.9c-4.9,5.1-13,9.3-23,9.3C-507.6-14-520.1-27-520.1-43.5z M-509.5-49.7h34.9
					c-1.4-9.4-8.7-14.4-17.4-14.3C-500.3-64-507.4-58.4-509.5-49.7z"/>
			</g>
		</g>
		<g transform="matrix(1,0,0,1,300,150)">
			<g transform="matrix(1,0,0,1,0,0)">
				<path class="st0" d="M-539.8-71.8v5.3c-5.1-4.1-11.5-6.5-18.4-6.5c-16.3,0-29.5,13.2-29.5,29.5S-574.5-14-558.2-14
					c7,0,13.4-2.4,18.4-6.5v4.4h9.8v-19v-16.8v-19.9H-539.8L-539.8-71.8z M-539.8-36.7c-2.8,7.5-10,12.9-18.4,12.9
					c-10.9,0-19.7-8.8-19.7-19.7s8.8-19.7,19.7-19.7c8.5,0,15.7,5.4,18.4,12.9c0.8,2.1,1.2,4.4,1.2,6.8
					C-538.6-41.1-539-38.9-539.8-36.7z"/>
			</g>
		</g>
	</g>
	<g transform="matrix(0.3100000023841858,0,0,0.3100000023841858,406.3772277832031,136.0484619140625)">
		<g transform="matrix(1,0,0,1,0,0)">
			<path class="st1" d="M-896.3-272.9l-92-161.6c-0.7-1.2-2.1-1.6-3.3-0.9L-1151-342c-0.9,0.5-1.4,1.6-1.1,2.6l51.7,256l-7.6,8.6
				c-12.7,14.5-23.5,22.4-43.9,22.4c-22.9,0-33.7-12.2-50.7-33.9c-20.1-25.5-45-57.2-104.8-58c-1.3,0-2.4,1.1-2.4,2.4v26
				c0,1.3,1.1,2.4,2.4,2.4c45.2,0.8,62.6,22.9,81.1,46.4c16.8,21.3,35.8,45.5,74.5,45.5c33.4,0,51.8-15.7,66.7-32.8l54.9-62.7
				c0,0,0,0,0,0l133.8-152.9C-895.9-270.8-895.8-272-896.3-272.9"/>
		</g>
	</g>
</g>
<g transform="matrix(0.3100000023841858,0,0,0.3100000023841858,537.8658447265625,109.23407745361328)" class="st2">
	<path class="st3" d="M0-10.3c5.7,0,10.3,4.6,10.3,10.3S5.7,10.3,0,10.3S-10.3,5.7-10.3,0S-5.7-10.3,0-10.3z"/>
</g>
<g transform="matrix(0.3100000023841858,0,0,0.3100000023841858,461.7551574707031,196.57676696777344)" class="st4">
	<path class="st5" d="M0-11.3c6.2,0,11.3,5.1,11.3,11.3S6.2,11.3,0,11.3S-11.3,6.2-11.3,0S-6.2-11.3,0-11.3z"/>
</g>
</svg>
